<svg width="21" height="22" viewBox="0 0 21 22" fill="none" xmlns="http://www.w3.org/2000/svg">
<g clip-path="url(#clip0_242_6130)">
<path d="M19.6117 10.7258C17.6459 7.09167 14.1984 4.8925 10.3834 4.8925C6.56842 4.8925 3.11508 7.09167 1.16675 10.7258L1.00342 11L1.15508 11.28C3.12092 14.9142 6.56842 17.1133 10.3834 17.1133C14.1984 17.1133 17.6518 14.9433 19.6117 11.28L19.7634 11L19.6117 10.7258ZM10.3834 15.9175C7.09925 15.9175 4.08342 14.0858 2.33342 11C4.08342 7.91417 7.09925 6.0825 10.3834 6.0825C13.6676 6.0825 16.6484 7.92 18.4276 11C16.6484 14.0858 13.6618 15.9175 10.3834 15.9175Z" fill="white"/>
<path d="M10.5525 7.01583C9.76161 7.0216 8.99013 7.26164 8.33554 7.70561C7.68095 8.14959 7.17261 8.77759 6.87472 9.51031C6.57684 10.243 6.50277 11.0476 6.66188 11.8224C6.82099 12.5971 7.20613 13.3074 7.76866 13.8634C8.3312 14.4194 9.04589 14.7963 9.82248 14.9464C10.5991 15.0964 11.4027 15.013 12.1319 14.7066C12.8611 14.4002 13.4831 13.8846 13.9195 13.2249C14.3558 12.5652 14.5868 11.7909 14.5834 11C14.5811 10.4735 14.4749 9.95263 14.271 9.46724C14.067 8.98185 13.7693 8.54148 13.3948 8.17136C13.0204 7.80124 12.5766 7.50865 12.0888 7.31037C11.6011 7.11208 11.079 7.01199 10.5525 7.01583ZM10.5525 13.8525C9.99386 13.8467 9.44933 13.676 8.98735 13.3618C8.52537 13.0476 8.16654 12.6039 7.95592 12.0864C7.7453 11.5689 7.69228 11.0007 7.80353 10.4532C7.91478 9.90562 8.18534 9.40318 8.58121 9.00891C8.97709 8.61465 9.48063 8.34615 10.0286 8.23714C10.5766 8.12812 11.1446 8.18345 11.6612 8.39619C12.1778 8.60892 12.6201 8.96956 12.9324 9.43282C13.2447 9.89607 13.4132 10.4413 13.4167 11C13.4183 11.376 13.3452 11.7486 13.2016 12.0961C13.0581 12.4437 12.847 12.7593 12.5806 13.0246C12.3141 13.29 11.9977 13.4998 11.6496 13.6419C11.3014 13.784 10.9285 13.8556 10.5525 13.8525Z" fill="white"/>
</g>
<defs>
<clipPath id="clip0_242_6130">
<rect width="21" height="21" fill="white" transform="translate(0 0.5)"/>
</clipPath>
</defs>
</svg>
