<svg width="21" height="16" viewBox="0 0 21 16" fill="none" xmlns="http://www.w3.org/2000/svg">
<path d="M17.9812 0.715622C17.9812 0.518747 17.9156 0.387497 17.7844 0.256247C17.6531 0.124997 17.5219 0.0593719 17.325 0.0593719C17.1281 0.0593719 16.9969 0.124997 16.8656 0.256247L15.0938 2.02812C13.7812 1.37187 12.2719 0.978122 10.5 0.781247C7.21875 1.10937 4.59375 2.29062 2.75625 4.39062C0.91875 6.49062 0 7.67187 0 8C0 8.32812 0.984375 9.50937 2.75625 11.6094C3.21562 12.1344 3.675 12.5937 4.26562 12.9875L2.49375 14.825C2.3625 14.9562 2.29688 15.0875 2.29688 15.2844C2.29688 15.4812 2.3625 15.6125 2.49375 15.7437C2.625 15.875 2.75625 15.9406 2.95312 15.9406C3.15 15.9406 3.28125 15.875 3.4125 15.7437L17.85 1.175C17.9156 1.04375 17.9812 0.912497 17.9812 0.715622ZM4.725 11.5437C3.15 10.1 2.1 8.91875 1.575 8C2.16563 7.01562 3.21562 5.83437 4.725 4.45625C6.23438 3.07812 8.20312 2.225 10.5 2.09375C11.8125 2.15937 13.0594 2.4875 14.1094 3.0125L12.9937 4.12812C12.2719 3.66875 11.4844 3.40625 10.5 3.40625C9.1875 3.40625 8.1375 3.86562 7.21875 4.71875C6.3 5.57187 5.90625 6.6875 5.90625 8C5.90625 8.98437 6.16875 9.8375 6.62813 10.5594L5.25 12.0031C5.05312 11.8719 4.85625 11.675 4.725 11.5437ZM7.6125 9.575C7.35 9.11562 7.21875 8.59062 7.21875 8C7.21875 7.08125 7.54688 6.29375 8.20312 5.70312C8.85938 5.1125 9.58125 4.71875 10.5 4.71875C11.0906 4.71875 11.6156 4.85 12.0094 5.1125L7.6125 9.575ZM18.2437 4.39062C17.9812 4.0625 17.6531 3.8 17.3906 3.5375L16.4062 4.52187C17.9156 5.9 18.9656 7.08125 19.4906 8C18.9 8.98437 17.85 10.1656 16.3406 11.5437C14.8312 12.9219 12.7969 13.775 10.5 13.9062C9.44998 13.8406 8.4656 13.6437 7.61248 13.3156L6.6281 14.3C7.80935 14.7594 9.05623 15.0875 10.5 15.2187C13.7812 14.8906 16.4062 13.7094 18.2437 11.6094C20.0812 9.50937 21 8.32812 21 8C21 7.67187 20.0156 6.49062 18.2437 4.39062Z" fill="white"/>
</svg>
