<svg width="22" height="22" viewBox="0 0 22 22" fill="none" xmlns="http://www.w3.org/2000/svg">
<g clip-path="url(#clip0_262_1671)">
<path d="M20.5517 10.3258C18.5859 6.69167 15.1384 4.4925 11.3234 4.4925C7.50836 4.4925 4.05503 6.69167 2.10669 10.3258L1.94336 10.6L2.09503 10.88C4.06086 14.5142 7.50836 16.7133 11.3234 16.7133C15.1384 16.7133 18.5917 14.5433 20.5517 10.88L20.7034 10.6L20.5517 10.3258ZM11.3234 15.5175C8.03919 15.5175 5.02336 13.6858 3.27336 10.6C5.02336 7.51417 8.03919 5.6825 11.3234 5.6825C14.6075 5.6825 17.5884 7.52 19.3675 10.6C17.5884 13.6858 14.6017 15.5175 11.3234 15.5175Z" fill="white"/>
<path d="M11.4925 6.61583C10.7016 6.62161 9.93007 6.86164 9.27548 7.30561C8.62089 7.74959 8.11255 8.37759 7.81466 9.11031C7.51678 9.84302 7.44271 10.6476 7.60182 11.4224C7.76093 12.1971 8.14607 12.9074 8.70861 13.4634C9.27114 14.0194 9.98583 14.3963 10.7624 14.5464C11.539 14.6964 12.3426 14.613 13.0718 14.3066C13.801 14.0002 14.4231 13.4846 14.8594 12.8249C15.2957 12.1652 15.5268 11.3909 15.5233 10.6C15.521 10.0735 15.4149 9.55264 15.2109 9.06724C15.007 8.58185 14.7092 8.14148 14.3348 7.77136C13.9603 7.40124 13.5165 7.10866 13.0288 6.91037C12.541 6.71208 12.019 6.61199 11.4925 6.61583ZM11.4925 13.4525C10.9338 13.4467 10.3893 13.276 9.92729 12.9618C9.46531 12.6476 9.10648 12.2039 8.89586 11.6864C8.68524 11.1689 8.63222 10.6007 8.74347 10.0532C8.85472 9.50563 9.12528 9.00318 9.52115 8.60892C9.91703 8.21465 10.4206 7.94615 10.9686 7.83714C11.5165 7.72812 12.0845 7.78346 12.6011 7.99619C13.1178 8.20892 13.56 8.56956 13.8723 9.03282C14.1847 9.49608 14.3532 10.0413 14.3566 10.6C14.3582 10.976 14.2851 11.3486 14.1416 11.6961C13.998 12.0437 13.7869 12.3593 13.5205 12.6246C13.2541 12.89 12.9376 13.0998 12.5895 13.2419C12.2414 13.384 11.8685 13.4556 11.4925 13.4525Z" fill="white"/>
</g>
<defs>
<clipPath id="clip0_262_1671">
<rect width="21" height="21" fill="white" transform="translate(0.939941 0.0999985)"/>
</clipPath>
</defs>
</svg>
